PathFileType	4	(X/Y/Z)	/Users/niels/Desktop/University/Third Semester/Perception and Action/Exam/Gymnastics Motion Tracking/Code for Gym Tracking/Analyzed Data/Webcam_Backflip/id1_3_trajectory_Sports2D/id1_3_trajectory_Sports2D_px_person00.trc
DataRate	CameraRate	NumFrames	NumMarkers	Units	OrigDataRate	OrigDataStartFrame	OrigNumFrames
29.87551867219917	29.87551867219917	9	22	m	29.87551867219917	210	241
Frame#	Time	Hip			RHip			RKnee			RAnkle			RBigToe			RSmallToe			RHeel			LHip			LKnee			LAnkle			LBigToe			LSmallToe			LHeel			Neck			Head			Nose			RShoulder			RElbow			RWrist			LShoulder			LElbow			LWrist		
		X1	Y1	Z1	X2	Y2	Z2	X3	Y3	Z3	X4	Y4	Z4	X5	Y5	Z5	X6	Y6	Z6	X7	Y7	Z7	X8	Y8	Z8	X9	Y9	Z9	X10	Y10	Z10	X11	Y11	Z11	X12	Y12	Z12	X13	Y13	Z13	X14	Y14	Z14	X15	Y15	Z15	X16	Y16	Z16	X17	Y17	Z17	X18	Y18	Z18	X19	Y19	Z19	X20	Y20	Z20	X21	Y21	Z21	X22	Y22	Z22
210	7.029166666666667	0.9147280281940415	-0.5909778573577017	0.0	0.9060673430085441	-0.5896874375227289	0.0	0.9058366728642526	-0.6946848454274962	0.0	0.89026810959414	-0.8067699582160189	0.0	0.9310592033612707	-0.82880519409559	0.0	0.9219232636590537	-0.8314447550325169	0.0	0.8819838619562401	-0.8244271927050313	0.0	0.924168870001889	-0.5912521279900997	0.0	0.9099243817201282	-0.6953941506621326	0.0	0.893062319991412	-0.8043177874479672	0.0	0.9349270997026727	-0.8276461840758799	0.0	0.9316990119449698	-0.8248172811042311	0.0	0.8813734763484472	-0.8203208286260036	0.0	0.9158758022069458	-0.43042207973830215	0.0	0.932493972250371	-0.3616020564888969	0.0	0.9365454542557607	-0.40205916918666845	0.0	0.8831289796444792	-0.45294685339501556	0.0	0.8645898762775259	-0.5234379854083062	0.0	0.8878546109134582	-0.5921939445288796	0.0	0.9335829375021102	-0.4574904189091564	0.0	0.9325881513734449	-0.5295727735710725	0.0	0.9516077049536619	-0.5926846915543009	0.0
211	7.062638888888889	0.9146952649281364	-0.5907026584862314	0.0	0.9060942007782632	-0.589535899682192	0.0	0.9058437936700737	-0.6945902414246857	0.0	0.8903191017397276	-0.8064364466930514	0.0	0.9311395491440281	-0.8287905452924066	0.0	0.9219201655541672	-0.8314808203134941	0.0	0.8819350381214219	-0.8242122258476973	0.0	0.9238448182894478	-0.591138739642877	0.0	0.9098878888255666	-0.6952675305309839	0.0	0.8928207642212749	-0.8040433037573914	0.0	0.9349181947317183	-0.8275088735135531	0.0	0.9316805900596677	-0.8248394347968444	0.0	0.881319840735102	-0.8200817379386901	0.0	0.9161398374239493	-0.4302311924225354	0.0	0.9328095064686379	-0.36161887258285136	0.0	0.9368283128173428	-0.40166126802806473	0.0	0.8834073234585327	-0.4528000730541279	0.0	0.8646646309614998	-0.5233094599607429	0.0	0.8883029731420677	-0.5919340651779057	0.0	0.9335264705084192	-0.4573407712810773	0.0	0.932269637068772	-0.5295157705476654	0.0	0.9513488923041847	-0.5924186073930335	0.0
212	7.096111111111111	0.914681627848772	-0.5907519626906907	0.0	0.9061169206223642	-0.5896476405565292	0.0	0.9058835276286539	-0.6948287904084809	0.0	0.8903389762425975	-0.8063896610101655	0.0	0.9313024303835976	-0.8288957616453206	0.0	0.9220027133725164	-0.8316087692306163	0.0	0.8819525314840477	-0.8242590423324474	0.0	0.9235077590467056	-0.5913511013686172	0.0	0.9098159864536053	-0.6953884154145573	0.0	0.8926437982258649	-0.8041526513088154	0.0	0.9348673866868377	-0.827493634421465	0.0	0.931622412372399	-0.8249877131331058	0.0	0.8812499941783408	-0.820153087531158	0.0	0.9164568572579337	-0.43030876874879503	0.0	0.9331321025459159	-0.36203743257861876	0.0	0.9371715736941648	-0.40151466714154804	0.0	0.8837868112592214	-0.45290660505206565	0.0	0.8648687610132136	-0.523431799644233	0.0	0.8887367595877919	-0.5920785803982117	0.0	0.9334997226470182	-0.4575420778197259	0.0	0.9320034146798744	-0.5298199500883446	0.0	0.9510987486201778	-0.5924249733316401	0.0
213	7.129583333333334	0.9146972410361699	-0.5912220663531611	0.0	0.9061709129275113	-0.5901456431392214	0.0	0.9059361254968024	-0.6954257910715497	0.0	0.8903268169973879	-0.8066929166405082	0.0	0.9316013248997074	-0.8291728330097814	0.0	0.9222760855776522	-0.8318315075798908	0.0	0.8820257246460061	-0.8246090038608552	0.0	0.9232249098368106	-0.5919789701937594	0.0	0.9097266150720731	-0.6958687045133812	0.0	0.8925953329772616	-0.8046806003245219	0.0	0.934833483774607	-0.8276699268449477	0.0	0.9315758218608468	-0.825266526544627	0.0	0.8811834303438943	-0.8205853592407168	0.0	0.9168284069581233	-0.43064931609503254	0.0	0.933428534257936	-0.3628399929803685	0.0	0.937602679752735	-0.40165620194940266	0.0	0.8842497434498523	-0.4532575221813291	0.0	0.8652332959650759	-0.5237796495466325	0.0	0.8891908903859891	-0.5926272629765608	0.0	0.9335032357114587	-0.4580839730859437	0.0	0.9317755116672956	-0.5305053526143061	0.0	0.9508539438974792	-0.592770628822188	0.0
214	7.163055555555555	0.9147441952602562	-0.5920448989113305	0.0	0.9062390045895277	-0.5910022806414477	0.0	0.905958416299198	-0.6963032740728614	0.0	0.8902611829412781	-0.8073091065300827	0.0	0.9319514901278205	-0.829718630183567	0.0	0.9226619427865091	-0.8322393701238199	0.0	0.8821312369095287	-0.8252134612809883	0.0	0.9230335366343142	-0.5929551589856958	0.0	0.9096290106010319	-0.6966915730408384	0.0	0.8926220316118657	-0.805541592641287	0.0	0.9348360996120739	-0.8281538882183795	0.0	0.9315847808648793	-0.8257522842282735	0.0	0.8810912940182921	-0.821339386313385	0.0	0.9172293563873262	-0.43123648053459457	0.0	0.9337167073854029	-0.36391152928187553	0.0	0.9381313091693313	-0.40214411464860544	0.0	0.8847363833192946	-0.4538630948159266	0.0	0.865702082269344	-0.5243564779870955	0.0	0.8896221281499401	-0.593537435951524	0.0	0.9334941078888488	-0.45891409958876844	0.0	0.9315479429476584	-0.5315356515845487	0.0	0.950603918382047	-0.5935172749432469	0.0
215	7.196527777777778	0.9148182420678518	-0.59306975054052	0.0	0.9062848572482206	-0.5920515635114725	0.0	0.9059200566964277	-0.6973158310317933	0.0	0.8901533197915107	-0.8081314994737823	0.0	0.9322432612760398	-0.8305099041328098	0.0	0.9230181450458339	-0.8328622418094263	0.0	0.8822642806232196	-0.8259615316439647	0.0	0.9229407571710295	-0.5941043768350157	0.0	0.9095375014351431	-0.6977174238373696	0.0	0.8926578291182702	-0.8065844731255932	0.0	0.9348796724404964	-0.8289298590927346	0.0	0.9316640133947302	-0.8264599232064395	0.0	0.8809754534314262	-0.8223023501541588	0.0	0.9176318907662978	-0.4320173616590548	0.0	0.9340250006686427	-0.365111838112607	0.0	0.9387266723306542	-0.40295939804971487	0.0	0.8851934540443659	-0.45467529654594535	0.0	0.8661892447675573	-0.5251398694879532	0.0	0.8899491145675733	-0.5947318884349566	0.0	0.9334322991160287	-0.4599399101580659	0.0	0.9313025168132297	-0.5327870162320837	0.0	0.9503120873452569	-0.5946407663056082	0.0
216	7.23	0.9148945801007319	-0.5941510722649166	0.0	0.9063032694870433	-0.593092044027866	0.0	0.9058213889918991	-0.698287467896217	0.0	0.8900568658995066	-0.8090352411139433	0.0	0.932428765609487	-0.8314018030880262	0.0	0.9232626438181214	-0.8336327570549	0.0	0.8824257628008718	-0.8267404527829181	0.0	0.9229292658573703	-0.5952311573140179	0.0	0.9094836240468094	-0.6987549279658066	0.0	0.8926826524891855	-0.807646765365818	0.0	0.9349698792086744	-0.8298405881523552	0.0	0.9317889616245416	-0.8273057372578018	0.0	0.8808710622632394	-0.8233186773549714	0.0	0.9180162174007609	-0.43290150551826617	0.0	0.9343846550189389	-0.36630474306686783	0.0	0.939335349566184	-0.40397575876684566	0.0	0.8855967731480564	-0.4555854014823349	0.0	0.8666222755140386	-0.5260465417173751	0.0	0.8901023088199486	-0.5960965611286897	0.0	0.9333106879778822	-0.4610222353046382	0.0	0.9310357488783022	-0.5340575540112174	0.0	0.9499266411052386	-0.5960101083191646	0.0
217	7.263472222222222	0.9149346412779921	-0.595163476636103	0.0	0.906316795299771	-0.5939836448814471	0.0	0.9056777606556456	-0.6990685656334938	0.0	0.8900130460258715	-0.8098995841655995	0.0	0.9325018910278435	-0.8322440214680796	0.0	0.9233709153281643	-0.834442433266116	0.0	0.8825796455888534	-0.8274602982824384	0.0	0.9229559255664895	-0.5961834981186319	0.0	0.909501676486816	-0.6996436552218288	0.0	0.8927000030891927	-0.8085845457850067	0.0	0.9350986263133689	-0.8307221191910346	0.0	0.9319069240433846	-0.8281721324375634	0.0	0.8807938518476282	-0.824225265658799	0.0	0.9183703129166128	-0.4337789960244362	0.0	0.9348318019092262	-0.3673551298845974	0.0	0.9399292048729018	-0.4050229287218641	0.0	0.8859446144185593	-0.4564741599669488	0.0	0.8669592057352208	-0.5269346481327472	0.0	0.8900392759636307	-0.5974719411346046	0.0	0.9331485243970346	-0.46201146117098785	0.0	0.930733061585285	-0.5351492565518959	0.0	0.9494085759401242	-0.5974456093986895	0.0
218	7.296944444444445	0.9149213218150851	-0.595997783681332	0.0	0.9063274085940672	-0.5946526373738448	0.0	0.9055060361896291	-0.6995982042453706	0.0	0.8900151954547348	-0.810615901945724	0.0	0.9324768280603375	-0.8329489116539005	0.0	0.9233365180550738	-0.8351867825430865	0.0	0.8826612516657455	-0.828047066273809	0.0	0.922972677142247	-0.5968692428311637	0.0	0.9096040248935872	-0.700292171708562	0.0	0.8927087281642139	-0.8092943800510571	0.0	0.9352384835090671	-0.831470481993417	0.0	0.9319704293604781	-0.8289431383458153	0.0	0.8807258323815498	-0.824889232791254	0.0	0.9186929877590724	-0.43454397783518434	0.0	0.9353898339143464	-0.3681571538109187	0.0	0.9405130217597335	-0.40595779742703075	0.0	0.8862581294538562	-0.4572344420223632	0.0	0.8671964083625117	-0.5276631393142719	0.0	0.8897514860582865	-0.5986929891372312	0.0	0.9329691099555388	-0.4628057112996077	0.0	0.9303629077234838	-0.5359434040592505	0.0	0.9487403141755816	-0.5987863151506685	0.0
